<mxfile host="app.diagrams.net" modified="2024-01-14T08:40:07.543Z" agent="Mozilla/5.0 (X11; Ubuntu; Linux x86_64; rv:109.0) Gecko/20100101 Firefox/116.0" version="22.1.18" etag="oy0bbM4bQ7U_jG0d14Sw" type="github">
  <diagram name="Page-1" id="3FGamRi0_vUj3R_QOQM6">
    <mxGraphModel>
      <root>
        <mxCell id="0" />
        <mxCell id="1" parent="0" />
      </root>
    </mxGraphModel>
  </diagram>
</mxfile>
